# xmcd
#
# Track frame offsets:
#	150
#	10352
#	17413
#	27078
#	39955
#	51784
#	64361
#	77105
#	86749
#	96754
#	107679
#	118721
#	131128
#	143992
#	155384
#	164314
#	176453
#	185146
#	194431
#	206809
#
# Disc length: 2912 seconds
#
# Revision: 0
# Processed by: cddbd v1.4PL0 Copyright (c) Steve Scherf et al.
# Submitted via: dBpowerAMP V4.0
#
DISCID=140b5e14
DTITLE=Carl Perkins - Rock and Roll Hero
DYEAR=1900
DGENRE=Rock and Roll
TTITLE0=Blue Suede Shoes
TTITLE1=Pink Pedal Pushers (Alt)
TTITLE2=Matchbox
TTITLE3=Roll Over Beethoven
TTITLE4=Gone, Gone, Gone
TTITLE5=Honey Don't
TTITLE6=Boppin' The Blues
TTITLE7=All Mama's Children
TTITLE8=Everybody's Trying to be My Baby 
TTITLE9=Dixie Fried
TTITLE10=I'm Sorry, I'm Not Sorry
TTITLE11=Your True Love
TTITLE12=That's Right
TTITLE13=You Can't Make Love to Somebody
TTITLE14=Dixie Bop
TTITLE15=Sweethearts Or Strangers
TTITLE16=That Don't Move Me
TTITLE17=Caldonia
TTITLE18=Her Love Rubbed Off
TTITLE19=You Can Do No Wrong (Alt)
EXTD=Licenced Wrom: KYLEJGDGVCJVTLBXFGGM
EXTT0=
EXTT1=
EXTT2=
EXTT3=
EXTT4=
EXTT5=
EXTT6=
EXTT7=
EXTT8=
EXTT9=
EXTT10=
EXTT11=
EXTT12=
EXTT13=
EXTT14=
EXTT15=
EXTT16=
EXTT17=
EXTT18=
EXTT19=
PLAYORDER=
